<?xml version="1.0" standalone="no"?>
<!DOCTYPE svg PUBLIC "-//W3C//DTD SVG 20010904//EN"
 "http://www.w3.org/TR/2001/REC-SVG-20010904/DTD/svg10.dtd">
<svg version="1.0" xmlns="http://www.w3.org/2000/svg"
 width="1536.000000pt" height="1536.000000pt" viewBox="0 0 1536.000000 1536.000000"
 preserveAspectRatio="xMidYMid meet">
<metadata>
Created by potrace 1.14, written by Peter Selinger 2001-2017
</metadata>
<g transform="translate(0.000000,1536.000000) scale(0.100000,-0.100000)"
fill="#000000" stroke="none">
<path d="M0 7680 l0 -7680 7680 0 7680 0 0 7680 0 7680 -7680 0 -7680 0 0
-7680z m6790 4240 l0 -560 -1002 0 -1003 0 1298 -1298 1297 -1297 -392 -393
-393 -392 -1302 1302 -1303 1303 0 -1003 0 -1002 -555 0 -555 0 0 1950 0 1950
1955 0 1955 0 0 -560z m3504 531 c301 -53 568 -188 744 -375 169 -181 275
-427 289 -673 l6 -103 -556 0 -556 0 -6 38 c-23 149 -89 227 -213 253 -190 39
-352 -82 -352 -263 0 -151 74 -282 287 -509 44 -46 276 -304 518 -574 241
-269 446 -499 456 -509 18 -19 20 -16 90 130 122 255 157 327 189 382 l30 52
624 0 624 0 -185 -372 c-253 -508 -335 -649 -526 -900 l-96 -127 405 -450
c222 -248 404 -453 404 -456 0 -3 -307 -5 -682 -4 l-683 0 -114 130 c-63 71
-117 129 -121 129 -4 0 -50 -20 -102 -44 -199 -93 -460 -167 -718 -203 -176
-24 -580 -24 -740 0 -408 62 -715 196 -947 412 -314 292 -445 728 -353 1174
79 386 334 710 742 940 l57 32 -50 68 c-113 156 -187 315 -221 481 -17 79 -19
120 -15 245 7 209 47 350 145 517 194 329 570 543 1053 597 135 15 435 6 573
-18z m-5615 -6438 c244 -753 449 -1381 455 -1397 11 -26 50 93 453 1365 l441
1394 676 3 676 2 0 -2250 0 -2250 -535 0 -535 0 -2 1280 -3 1280 -361 -1277
-362 -1278 -448 -3 -449 -2 -360 1272 -360 1273 -3 -1273 -2 -1272 -540 0
-540 0 0 2250 0 2250 678 0 678 0 443 -1367z m5886 1342 c839 -129 1530 -712
1799 -1516 241 -723 98 -1521 -381 -2118 -595 -741 -1592 -1026 -2497 -714
-131 45 -356 155 -476 233 -951 620 -1296 1838 -809 2860 73 153 127 241 238
389 362 487 950 818 1561 880 127 13 441 5 565 -14z"/>
<path d="M9370 9835 c-136 -106 -220 -266 -220 -419 0 -218 137 -377 387 -448
144 -41 416 -26 584 30 30 11 54 23 54 28 0 14 -738 842 -750 843 -5 1 -30
-15 -55 -34z"/>
</g>
</svg>
