<svg width="24" height="24" viewBox="0 0 24 24" fill="none" xmlns="http://www.w3.org/2000/svg">
<path d="M3.52997 2.47001C3.38779 2.33753 3.19975 2.26541 3.00545 2.26884C2.81114 2.27227 2.62576 2.35098 2.48835 2.48839C2.35093 2.6258 2.27222 2.81119 2.26879 3.00549C2.26537 3.19979 2.33749 3.38784 2.46997 3.53001L20.47 21.53C20.5386 21.6037 20.6214 21.6628 20.7134 21.7038C20.8054 21.7448 20.9047 21.7668 21.0054 21.7686C21.1062 21.7704 21.2062 21.7519 21.2996 21.7141C21.393 21.6764 21.4778 21.6203 21.549 21.549C21.6202 21.4778 21.6764 21.393 21.7141 21.2996C21.7518 21.2062 21.7703 21.1062 21.7686 21.0055C21.7668 20.9048 21.7447 20.8055 21.7038 20.7135C21.6628 20.6215 21.6037 20.5387 21.53 20.47L3.52997 2.47001ZM20.25 5.50701V17.068L5.85297 2.67101C6.00297 2.62801 6.15897 2.59601 6.31997 2.57701C10.094 2.13888 13.906 2.13888 17.68 2.57701C19.177 2.75101 20.25 4.03701 20.25 5.50701ZM3.74997 21V6.93201L17.813 20.995L12 18.088L4.83497 21.671C4.72062 21.7281 4.59359 21.755 4.46592 21.7492C4.33825 21.7434 4.21418 21.7051 4.10549 21.6379C3.99679 21.5706 3.90708 21.4768 3.84486 21.3651C3.78263 21.2535 3.74997 21.1278 3.74997 21Z" fill="white"/>
</svg>
