<svg width="27" height="27" viewBox="0 0 27 27" fill="none" xmlns="http://www.w3.org/2000/svg">
<circle cx="13.5" cy="13.5" r="13.5" fill="#BFC8D6"/>
<path fill-rule="evenodd" clip-rule="evenodd" d="M11.1006 7.6125C11.2634 7.53104 11.443 7.48863 11.625 7.48863C11.807 7.48863 11.9866 7.53104 12.1494 7.6125L15.27 9.17375C15.3362 9.20625 15.4137 9.20625 15.48 9.17375L17.8981 7.96437C18.0768 7.87512 18.2753 7.833 18.4748 7.84201C18.6743 7.85103 18.8682 7.91088 19.038 8.01588C19.2079 8.12089 19.3481 8.26756 19.4454 8.44198C19.5426 8.61641 19.5937 8.81279 19.5938 9.0125V16.8156C19.5938 17.2594 19.3431 17.6656 18.9456 17.8637L15.8988 19.3869C15.7361 19.4681 15.5568 19.5104 15.375 19.5104C15.1932 19.5104 15.0139 19.4681 14.8512 19.3869L11.73 17.8263C11.6974 17.8099 11.6615 17.8014 11.625 17.8014C11.5885 17.8014 11.5526 17.8099 11.52 17.8263L9.1025 19.0356C8.92383 19.125 8.72526 19.1673 8.52567 19.1583C8.32608 19.1494 8.13209 19.0896 7.96213 18.9845C7.79216 18.8795 7.65187 18.7328 7.55458 18.5583C7.45729 18.3838 7.40623 18.1873 7.40625 17.9875V10.1844C7.40625 9.74062 7.65688 9.33437 8.05375 9.13625L11.1006 7.61312V7.6125ZM11.625 9.75C11.7493 9.75 11.8685 9.79938 11.9565 9.88729C12.0444 9.9752 12.0938 10.0944 12.0938 10.2187V15.375C12.0938 15.4993 12.0444 15.6185 11.9565 15.7065C11.8685 15.7944 11.7493 15.8437 11.625 15.8437C11.5007 15.8437 11.3815 15.7944 11.2935 15.7065C11.2056 15.6185 11.1562 15.4993 11.1562 15.375V10.2187C11.1562 10.0944 11.2056 9.9752 11.2935 9.88729C11.3815 9.79938 11.5007 9.75 11.625 9.75ZM15.8438 11.625C15.8438 11.5007 15.7944 11.3815 15.7065 11.2935C15.6185 11.2056 15.4993 11.1562 15.375 11.1562C15.2507 11.1562 15.1315 11.2056 15.0435 11.2935C14.9556 11.3815 14.9062 11.5007 14.9062 11.625V16.7812C14.9062 16.9056 14.9556 17.0248 15.0435 17.1127C15.1315 17.2006 15.2507 17.25 15.375 17.25C15.4993 17.25 15.6185 17.2006 15.7065 17.1127C15.7944 17.0248 15.8438 16.9056 15.8438 16.7812V11.625Z" fill="white"/>
</svg>
