<svg width="27" height="27" viewBox="0 0 27 27" fill="none" xmlns="http://www.w3.org/2000/svg">
<circle cx="13.5" cy="13.5" r="13.5" fill="#BFC8D6"/>
<path fill-rule="evenodd" clip-rule="evenodd" d="M12.5625 8.34376C12.0085 8.34376 11.4599 8.45288 10.9481 8.66489C10.4362 8.8769 9.97114 9.18765 9.57939 9.5794C9.18765 9.97115 8.8769 10.4362 8.66488 10.9481C8.45287 11.4599 8.34375 12.0085 8.34375 12.5625C8.34375 13.1165 8.45287 13.6651 8.66488 14.177C8.8769 14.6888 9.18765 15.1539 9.57939 15.5456C9.97114 15.9374 10.4362 16.2481 10.9481 16.4601C11.4599 16.6721 12.0085 16.7813 12.5625 16.7813C13.6814 16.7813 14.7544 16.3368 15.5456 15.5456C16.3368 14.7544 16.7812 13.6814 16.7812 12.5625C16.7812 11.4436 16.3368 10.3706 15.5456 9.5794C14.7544 8.78823 13.6814 8.34376 12.5625 8.34376ZM7.40625 12.5625C7.40636 11.7344 7.6059 10.9186 7.98799 10.1839C8.37009 9.4493 8.92349 8.81749 9.6014 8.34196C10.2793 7.86642 11.0618 7.56115 11.8826 7.45196C12.7034 7.34277 13.5385 7.43288 14.3171 7.71467C15.0958 7.99645 15.7951 8.46162 16.356 9.07083C16.9168 9.68004 17.3227 10.4154 17.5393 11.2146C17.7558 12.0138 17.7767 12.8535 17.6002 13.6625C17.4236 14.4715 17.0549 15.2262 16.525 15.8625L19.4563 18.7938C19.5023 18.8367 19.5392 18.8884 19.5649 18.9459C19.5905 19.0034 19.6043 19.0655 19.6054 19.1284C19.6065 19.1914 19.5949 19.2539 19.5713 19.3123C19.5478 19.3706 19.5127 19.4236 19.4681 19.4682C19.4236 19.5127 19.3706 19.5478 19.3122 19.5713C19.2539 19.5949 19.1914 19.6065 19.1284 19.6054C19.0655 19.6043 19.0034 19.5905 18.9459 19.5649C18.8884 19.5393 18.8367 19.5023 18.7937 19.4563L15.8625 16.525C15.1095 17.1522 14.1934 17.5518 13.2215 17.677C12.2495 17.8023 11.262 17.648 10.3746 17.2321C9.48725 16.8163 8.73674 16.1562 8.21102 15.3292C7.6853 14.5022 7.40614 13.5425 7.40625 12.5625Z" fill="white"/>
</svg>
