<svg width="27" height="27" viewBox="0 0 27 27" fill="none" xmlns="http://www.w3.org/2000/svg">
<circle cx="13.5" cy="13.5" r="13.5" fill="#1A75FF"/>
<path fill-rule="evenodd" clip-rule="evenodd" d="M9.95 7.61062C12.3087 7.33678 14.6913 7.33678 17.05 7.61062C17.9856 7.71937 18.6562 8.52312 18.6562 9.44187V19.125C18.6561 19.2048 18.6356 19.2833 18.5967 19.353C18.5578 19.4227 18.5017 19.4812 18.4338 19.5232C18.3659 19.5651 18.2884 19.589 18.2086 19.5926C18.1289 19.5962 18.0495 19.5794 17.9781 19.5437L13.5 17.3056L9.02188 19.545C8.95036 19.5807 8.87091 19.5975 8.79106 19.5939C8.71122 19.5902 8.63363 19.5662 8.56568 19.5241C8.49773 19.482 8.44167 19.4233 8.40283 19.3534C8.36398 19.2835 8.34365 19.2049 8.34375 19.125V9.44187C8.34375 8.52312 9.01438 7.71937 9.95 7.61062Z" fill="white"/>
</svg>
