<svg width="27" height="27" viewBox="0 0 27 27" fill="none" xmlns="http://www.w3.org/2000/svg">
<circle cx="13.5" cy="13.5" r="13.5" fill="#BFC8D6"/>
<path fill-rule="evenodd" clip-rule="evenodd" d="M13.2125 19.9694L13.2562 19.9944L13.2737 20.0044C13.3431 20.0419 13.4208 20.0616 13.4997 20.0616C13.5786 20.0616 13.6562 20.0419 13.7256 20.0044L13.7431 19.995L13.7875 19.9694C14.0319 19.8244 14.2705 19.6697 14.5025 19.5056C15.1032 19.0816 15.6644 18.6042 16.1794 18.0794C17.3944 16.8356 18.6562 14.9669 18.6562 12.5625C18.6562 11.195 18.113 9.88347 17.146 8.91648C16.179 7.9495 14.8675 7.40625 13.5 7.40625C12.1325 7.40625 10.821 7.9495 9.85398 8.91648C8.887 9.88347 8.34375 11.195 8.34375 12.5625C8.34375 14.9662 9.60625 16.8356 10.8206 18.0794C11.3354 18.6042 11.8964 19.0815 12.4969 19.5056C12.7291 19.6697 12.9678 19.8244 13.2125 19.9694ZM13.5 14.4375C13.9973 14.4375 14.4742 14.24 14.8258 13.8883C15.1775 13.5367 15.375 13.0598 15.375 12.5625C15.375 12.0652 15.1775 11.5883 14.8258 11.2367C14.4742 10.885 13.9973 10.6875 13.5 10.6875C13.0027 10.6875 12.5258 10.885 12.1742 11.2367C11.8225 11.5883 11.625 12.0652 11.625 12.5625C11.625 13.0598 11.8225 13.5367 12.1742 13.8883C12.5258 14.24 13.0027 14.4375 13.5 14.4375Z" fill="white"/>
</svg>
