<svg width="65" height="65" viewBox="0 0 65 65" fill="none" xmlns="http://www.w3.org/2000/svg">
<path fill-rule="evenodd" clip-rule="evenodd" d="M6.09375 32.5C6.09375 17.9156 17.9156 6.09375 32.5 6.09375C47.0844 6.09375 58.9062 17.9156 58.9062 32.5C58.9062 47.0844 47.0844 58.9062 32.5 58.9062C17.9156 58.9062 6.09375 47.0844 6.09375 32.5ZM32.5 22.3438C33.0387 22.3438 33.5554 22.5578 33.9363 22.9387C34.3172 23.3196 34.5312 23.8363 34.5312 24.375V34.5312C34.5312 35.07 34.3172 35.5866 33.9363 35.9676C33.5554 36.3485 33.0387 36.5625 32.5 36.5625C31.9613 36.5625 31.4446 36.3485 31.0637 35.9676C30.6828 35.5866 30.4688 35.07 30.4688 34.5312V24.375C30.4688 23.8363 30.6828 23.3196 31.0637 22.9387C31.4446 22.5578 31.9613 22.3438 32.5 22.3438ZM32.5 44.6875C33.0387 44.6875 33.5554 44.4735 33.9363 44.0926C34.3172 43.7116 34.5312 43.195 34.5312 42.6562C34.5312 42.1175 34.3172 41.6009 33.9363 41.2199C33.5554 40.839 33.0387 40.625 32.5 40.625C31.9613 40.625 31.4446 40.839 31.0637 41.2199C30.6828 41.6009 30.4688 42.1175 30.4688 42.6562C30.4688 43.195 30.6828 43.7116 31.0637 44.0926C31.4446 44.4735 31.9613 44.6875 32.5 44.6875Z" fill="#DDE5F0"/>
</svg>
