<svg xmlns="http://www.w3.org/2000/svg" width="65" height="65" viewBox="0 0 65 65" fill="none">
    <path d="M20.2936 50.7812C19.1425 50.7812 18.0727 50.1421 17.6529 49.0696C16.7233 46.7032 16.2474 44.183 16.25 41.6406C16.25 36.901 17.8723 32.546 20.5888 29.0902C20.9977 28.5702 21.599 28.2533 22.2138 28.015C23.4948 27.5194 24.6242 26.6229 25.4963 25.5125C27.5987 22.8303 30.2378 20.6164 33.2448 19.0125C35.2029 17.9725 36.9011 16.4233 37.7217 14.3677C38.298 12.9276 38.594 11.3906 38.5938 9.83937V8.125C38.5938 7.58628 38.8078 7.06962 39.1887 6.68869C39.5697 6.30776 40.0863 6.09375 40.625 6.09375C42.2412 6.09375 43.7912 6.73577 44.934 7.87857C46.0768 9.02137 46.7188 10.5713 46.7188 12.1875C46.7188 15.3075 46.0146 18.2623 44.7607 20.9029C44.0402 22.4142 45.0504 24.375 46.7242 24.375H55.1905C57.9692 24.375 60.4582 26.2546 60.7534 29.0198C60.8752 30.1627 60.9375 31.3219 60.9375 32.5C60.9487 39.9109 58.4162 47.1012 53.7632 52.8694C52.7123 54.1748 51.09 54.8438 49.4163 54.8438H38.5396C37.2315 54.8438 35.9288 54.6325 34.6857 54.2208L26.2519 51.4042C25.0091 50.9908 23.7077 50.7805 22.3979 50.7812H20.2936ZM6.31315 29.7294C4.82064 33.523 4.05709 37.564 4.06253 41.6406C4.05911 44.8589 4.53373 48.0599 5.47086 51.1387C6.17503 53.4408 8.4067 54.8438 10.8144 54.8438H13.2709C14.4761 54.8438 15.2209 53.495 14.6873 52.4117C13.0356 49.0617 12.1792 45.3757 12.1848 41.6406C12.1848 37.0148 13.474 32.6896 15.7111 29.0035C16.3746 27.9121 15.6352 26.4062 14.3569 26.4062H11.5104C9.25711 26.4062 7.1419 27.6331 6.31315 29.7294Z" fill="#DDE5F0"/>
</svg>
