<svg xmlns="http://www.w3.org/2000/svg" width="27" height="27" viewBox="0 0 27 27" fill="none">
    <circle cx="13.5" cy="13.5" r="13.5" fill="#BFC8D6"/>
    <svg xmlns="http://www.w3.org/2000/svg" width="15" height="15" viewBox="-6 -6 15 15" fill="none">
    <path fill-rule="evenodd" clip-rule="evenodd" d="M4.6875 3.75C4.6875 3.00408 4.98382 2.28871 5.51126 1.76126C6.03871 1.23382 6.75408 0.9375 7.5 0.9375C8.24592 0.9375 8.96129 1.23382 9.48874 1.76126C10.0162 2.28871 10.3125 3.00408 10.3125 3.75C10.3125 4.49592 10.0162 5.21129 9.48874 5.73874C8.96129 6.26618 8.24592 6.5625 7.5 6.5625C6.75408 6.5625 6.03871 6.26618 5.51126 5.73874C4.98382 5.21129 4.6875 4.49592 4.6875 3.75ZM2.34437 12.5656C2.36545 11.2122 2.9179 9.92128 3.88247 8.97161C4.84705 8.02194 6.14638 7.48966 7.5 7.48966C8.85362 7.48966 10.1529 8.02194 11.1175 8.97161C12.0821 9.92128 12.6345 11.2122 12.6556 12.5656C12.6572 12.6567 12.6323 12.7464 12.5838 12.8235C12.5353 12.9006 12.4653 12.962 12.3825 13C10.8507 13.7023 9.1851 14.0648 7.5 14.0625C5.75875 14.0625 4.10437 13.6825 2.6175 13C2.53468 12.962 2.46473 12.9006 2.41623 12.8235C2.36772 12.7464 2.34275 12.6567 2.34437 12.5656Z" fill="white"/>
</svg>
</svg>
