<svg xmlns="http://www.w3.org/2000/svg" width="512" height="512" fill="none" viewBox="0 0 512 512">
  <path fill="#1A75FF" d="M0 0h512v512H0z"/>
  <path fill="#fff" d="M93 93h37v129.998H93z"/>
  <path fill="#fff" d="M103 93h120.39v37.25H103z"/>
  <path fill="#fff" d="m138.11 111.941 104.892 104.892-26.17 26.17-104.891-104.892zM379.731 132.3h-37.243c.206-6.79-4.321-9.877-9.259-9.877-5.35 0-9.671 3.498-9.671 9.054 0 5.144 3.498 10.699 10.288 17.489l84.157 93.768h-45.68l-69.547-77.924c-12.345-12.346-16.872-21.811-16.872-33.127 0-20.988 17.078-38.683 47.737-38.683 31.275 0 46.502 19.136 46.09 39.3Zm-55.967 14.814 15.844 24.074-12.346 3.498c-13.786 4.115-20.37 12.345-20.37 20.576 0 8.436 7.201 15.637 19.958 15.637 22.017 0 36.009-14.814 45.062-37.859l4.115-7.407h41.712l-5.967 11.522c-18.769 42.341-45.827 65.843-87.391 65.843-34.568 0-56.378-17.901-56.378-44.444 0-20.37 12.963-37.86 39.917-46.501l15.844-4.939Z"/>
  <ellipse cx="343" cy="342.999" fill="#fff" rx="75" ry="74.999"/>
  <path fill="#fff" d="M93 418V268.002h45.196l37.55 115.7-15.31 2.916 37.551-118.616H243V418h-35.541V290.602l10.936 2.37L183.036 418h-29.89l-35.359-125.028 11.118-2.37V418H93Z"/>
</svg>
