<svg xmlns="http://www.w3.org/2000/svg" width="57" height="51" viewBox="0 0 57 51" fill="none">
    <path fill-rule="evenodd" clip-rule="evenodd" d="M21.4609 4.13312C24.5891 -1.28355 32.4107 -1.28355 35.5361 4.13312L55.4559 38.659C58.5814 44.0756 54.6705 50.8464 48.417 50.8464H8.5801C2.32656 50.8464 -1.58156 44.0756 1.54385 38.659L21.4582 4.13312H21.4609ZM28.4999 18.3437C29.0386 18.3437 29.5553 18.5577 29.9362 18.9387C30.3171 19.3196 30.5311 19.8363 30.5311 20.375V30.5312C30.5311 31.07 30.3171 31.5866 29.9362 31.9676C29.5553 32.3485 29.0386 32.5625 28.4999 32.5625C27.9612 32.5625 27.4445 32.3485 27.0636 31.9676C26.6827 31.5866 26.4686 31.07 26.4686 30.5312V20.375C26.4686 19.8363 26.6827 19.3196 27.0636 18.9387C27.4445 18.5577 27.9612 18.3437 28.4999 18.3437ZM28.4999 40.6875C29.0386 40.6875 29.5553 40.4735 29.9362 40.0926C30.3171 39.7116 30.5311 39.195 30.5311 38.6562C30.5311 38.1175 30.3171 37.6009 29.9362 37.2199C29.5553 36.839 29.0386 36.625 28.4999 36.625C27.9612 36.625 27.4445 36.839 27.0636 37.2199C26.6827 37.6009 26.4686 38.1175 26.4686 38.6562C26.4686 39.195 26.6827 39.7116 27.0636 40.0926C27.4445 40.4735 27.9612 40.6875 28.4999 40.6875Z" fill="#DDE5F0"/>
</svg>
